<svg xmlns="http://www.w3.org/2000/svg" viewBox="0 0 340 340"><path d="M43.692 55.962s-30.866 1.482-30.866 37.426v186.858l30.866-21.093z" style="fill:#4e73a8"/><path d="M33.919 259.153a21.094 21.094 0 0 0-21.08 21.862c.407 11.43 10.148 20.324 21.585 20.324h158.122a1.493 1.493 0 0 0 .816-2.746c-4.39-2.845-9.6-8.331-9.6-18.347 0-17.317 15.563-21.093 15.563-21.093z" style="fill:#eaf5ff"/><path style="fill:#88b0ea" d="M43.692 55.962h155.637v203.191H43.692z"/><path d="M310.622 10h-126.9a16.553 16.553 0 0 0-16.552 16.552V146.03a16.553 16.553 0 0 0 16.552 16.552h63.448v45.532l45.474-45.532h17.974a16.552 16.552 0 0 0 16.552-16.552V26.552A16.552 16.552 0 0 0 310.622 10z" style="fill:#ffd071"/><path d="M290.771 60.531h-51.649a4 4 0 0 1 0-8h51.649c5.242.084 5.27 7.909 0 8zM290.771 90.018h-51.649a4 4 0 0 1 0-8h51.649c5.242.082 5.27 7.91 0 8zM290.771 119.506h-51.649a4 4 0 0 1 0-8h51.649c5.242.085 5.27 7.91 0 8z" style="fill:#fff"/><path d="M184.076 284.246a26.425 26.425 0 0 1 0-8H36.985a4 4 0 0 0 0 8z" style="fill:#c9d4ff"/><path d="M209.42 56.531c-.09 5.258-7.911 5.257-8 0 .09-5.258 7.911-5.257 8 0zM209.42 86.018c-.09 5.258-7.911 5.258-8 0 .09-5.257 7.911-5.257 8 0zM209.42 115.506c-.09 5.258-7.911 5.257-8 0 .09-5.258 7.911-5.257 8 0z" style="fill:#fff"/><path style="fill:#c9d4ff" d="M47.805 276.246h30.38v25.093h-30.38z"/><path style="fill:#f47676" d="M58.032 280.246V330l21.553-15.622L101.138 330v-49.754H58.032z"/><path d="M12.826 284.246a4 4 0 0 1-4-4V93.389c0-39.3 34.328-41.406 34.674-41.423 5.257-.108 5.641 7.6.4 7.99-1.158.066-27.069 1.906-27.069 33.433v186.857a4 4 0 0 1-4.005 4z" style="fill:#383a49"/><path d="M199.33 305.339h-80.791a4 4 0 1 1 0-8h67.319c-8.051-8.431-8.043-25.763 0-34.186H33.919a17.093 17.093 0 0 0 0 34.186h23.293c5.281.091 5.236 7.918 0 8H33.919c-33.17-1.159-33.24-49 0-50.186H199.33c4.617.013 5.527 6.753.943 7.887a17.3 17.3 0 0 0-12.507 17.206c0 14.011 12 17.082 12.507 17.206 4.48 1.09 3.78 7.874-.943 7.887zM43.692 243.952a4 4 0 0 1-4-4V55.962a4 4 0 0 1 4-4h105.3a4 4 0 0 1 0 8h-101.3v179.99a4 4 0 0 1-4 4z" style="fill:#383a49"/><path d="M199.33 263.153a4 4 0 0 1-4-4v-76.91a4 4 0 0 1 8 0v76.91a4 4 0 0 1-4 4zM101.139 334a4 4 0 0 1-2.406-.8l-19.148-14.41-19.148 14.41a4 4 0 0 1-6.405-3.2v-49.754a4 4 0 0 1 4-4h43.106a4 4 0 0 1 4 4V330a4.023 4.023 0 0 1-3.999 4zm-21.554-24.215a4 4 0 0 1 2.405.8l15.148 11.4v-37.739H62.032v37.739l15.148-11.4a4 4 0 0 1 2.405-.8z" style="fill:#383a49"/><path d="M247.173 212.114a4.021 4.021 0 0 1-4-4v-41.532h-59.447a20.576 20.576 0 0 1-20.552-20.552V26.552A20.576 20.576 0 0 1 183.726 6h126.9a20.575 20.575 0 0 1 20.551 20.552V146.03a20.575 20.575 0 0 1-20.551 20.552h-16.32L250 210.941a4 4 0 0 1-2.827 1.173zM183.726 14a12.566 12.566 0 0 0-12.552 12.552V146.03a12.566 12.566 0 0 0 12.552 12.552h63.448a4 4 0 0 1 4 4v35.867l38.644-38.694a4 4 0 0 1 2.83-1.173h17.975a12.566 12.566 0 0 0 12.551-12.552V26.552A12.566 12.566 0 0 0 310.623 14z" style="fill:#383a49"/></svg>